# xmcd
#
# Track frame offsets:
#	151
#	18562
#	31691
#	41652
#	59799
#	72426
#	84547
#	94574
#	115881
#	130876
#	144989
#	163356
#	174339
#	183394
#	198049
#	210286
#	226625
#	242430
#	252383
#	269898
#
# Disc length: 3757 seconds
#
# Revision: 2
# Processed by: cddbd v1.5.1PL0 Copyright (c) Steve Scherf et al.
# Submitted via: audiograbber 1.83.01
#
DISCID=150eab14
DTITLE=Various Artist - Soul Classics
DYEAR=1998
DGENRE=Soul
TTITLE0=Billy Griffin - Hold Me Tighter In The Rain
TTITLE1=Percy Sledge - When A Man Loves A Woman
TTITLE2=The Drifters - Save The Last Dance For Me
TTITLE3=Brook Benton - Rainy Night In Georgia
TTITLE4=Sam and Dave - Soul Man
TTITLE5=The Three Degrees - When Will I See You Again
TTITLE6=Tymes - So Much In Love
TTITLE7=Harold Melvin and The Bluenotes - The Love I Lost
TTITLE8=The Detroit Emeralds - Feel The Need In Me
TTITLE9=Billy Ocean - Love Really Hurts Without You
TTITLE10=Odyssey - It Will Be Alright
TTITLE11=Brook Benton - Endlessly
TTITLE12=Gladys Knight and The Pips - Every Beat Of My Heart
TTITLE13=Percy Sledge - Warm and Tender Love
TTITLE14=Eddie Floyd - Bring It On Home To Me
TTITLE15=Brenda Holloway - You've Made Me So Very Happy
TTITLE16=Kool and The Gang - Joanna
TTITLE17=The Drifters - Dance With Me
TTITLE18=The Chi-Lites - Oh Girl
TTITLE19=The Three Degrees - The Year Of Decision
EXTD=
EXTT0=
EXTT1=
EXTT2=
EXTT3=
EXTT4=
EXTT5=
EXTT6=
EXTT7=
EXTT8=
EXTT9=
EXTT10=
EXTT11=
EXTT12=
EXTT13=
EXTT14=
EXTT15=
EXTT16=
EXTT17=
EXTT18=
EXTT19=
PLAYORDER=
